<?xml version="1.0" encoding="UTF-8" standalone="no"?>
<!DOCTYPE svg PUBLIC "-//W3C//DTD SVG 1.1//EN" "http://www.w3.org/Graphics/SVG/1.1/DTD/svg11.dtd">
<svg version="1.1" xmlns="http://www.w3.org/2000/svg" xmlns:xlink="http://www.w3.org/1999/xlink" preserveAspectRatio="xMidYMid meet" viewBox="0 0 650 50" width="650" height="50"><defs><path d="M650 50L650 50L0 50L0 0L3.77 0.08L5.04 0.15L6.39 0.07L10.16 0L13.92 0.07L17.65 0.28L21.33 0.63L24.98 1.12L28.57 1.73L32.11 2.48L35.6 3.35L39.04 4.35L42.41 5.47L45.72 6.71L48.97 8.06L50.79 8.9L52.59 8.06L55.84 6.71L59.15 5.47L62.53 4.36L65.96 3.36L69.45 2.48L72.99 1.74L76.59 1.12L80.23 0.64L83.91 0.29L87.64 0.08L91.41 0L95.17 0.08L96.45 0.15L97.8 0.07L101.56 0L105.33 0.07L109.06 0.28L112.74 0.63L116.38 1.12L119.98 1.73L123.52 2.48L127.01 3.35L130.44 4.35L133.82 5.47L137.13 6.71L140.38 8.06L142.19 8.9L144 8.06L147.25 6.71L150.56 5.47L153.93 4.36L157.37 3.36L160.86 2.48L164.4 1.74L167.99 1.12L171.63 0.64L175.32 0.29L179.05 0.08L182.81 0L186.58 0.08L187.85 0.15L189.2 0.07L192.97 0L196.73 0.07L200.46 0.28L204.15 0.63L207.79 1.12L211.38 1.73L214.92 2.48L218.41 3.35L221.85 4.35L225.22 5.47L228.53 6.71L231.78 8.06L233.6 8.9L235.41 8.06L238.65 6.71L241.97 5.47L245.34 4.36L248.77 3.36L252.26 2.48L255.81 1.74L259.4 1.12L263.04 0.64L266.73 0.29L270.45 0.08L274.22 0L277.98 0.08L279.26 0.15L280.61 0.07L284.38 0L288.14 0.07L291.87 0.28L295.55 0.63L299.19 1.12L302.79 1.73L306.33 2.48L309.82 3.35L313.25 4.35L316.63 5.47L319.94 6.71L323.19 8.06L325.01 8.9L326.81 8.06L330.06 6.71L333.37 5.47L336.75 4.36L340.18 3.36L343.67 2.48L347.21 1.74L350.81 1.12L354.45 0.64L358.13 0.29L361.86 0.08L365.62 0L369.39 0.08L370.67 0.15L372.02 0.07L375.78 0L379.55 0.07L383.27 0.28L386.96 0.63L390.6 1.12L394.19 1.73L397.74 2.48L401.23 3.35L404.66 4.35L408.03 5.47L411.35 6.71L414.59 8.06L416.41 8.9L418.22 8.06L421.47 6.71L424.78 5.47L428.15 4.36L431.59 3.36L435.08 2.48L438.62 1.74L442.21 1.12L445.85 0.64L449.54 0.29L453.27 0.08L457.03 0L460.8 0.08L462.07 0.15L463.42 0.07L467.19 0L470.95 0.07L474.68 0.28L478.37 0.63L482.01 1.12L485.6 1.73L489.14 2.48L492.63 3.35L496.07 4.35L499.44 5.47L502.75 6.71L506 8.06L507.82 8.9L509.62 8.06L512.87 6.71L516.18 5.47L519.56 4.36L522.99 3.36L526.48 2.48L530.02 1.74L533.62 1.12L537.26 0.64L540.94 0.29L544.67 0.08L548.44 0L552.2 0.08L553.48 0.15L554.83 0.07L558.59 0L562.36 0.07L566.09 0.28L569.77 0.63L573.41 1.12L577.01 1.73L580.55 2.48L584.04 3.35L587.47 4.35L590.85 5.47L594.16 6.71L597.41 8.06L599.22 8.9L601.03 8.06L604.28 6.71L607.59 5.47L610.96 4.36L614.4 3.36L617.89 2.48L621.43 1.74L625.02 1.12L628.67 0.64L632.35 0.29L636.08 0.08L639.84 0L643.61 0.08L644.88 0.15L646.23 0.07L650 0L650 50L650 50Z" id="a1TOeqvXYU"></path><linearGradient id="gradientb1gpehDnB7" gradientUnits="userSpaceOnUse" x1="325" y1="50" x2="325" y2="0"><stop style="stop-color: #713fb3;stop-opacity: 1" offset="0%"></stop><stop style="stop-color: #8c383a;stop-opacity: 1" offset="100%"></stop></linearGradient></defs><g><g><g><use xlink:href="#a1TOeqvXYU" opacity="1" fill="url(#gradientb1gpehDnB7)"></use></g></g></g></svg>