<?xml version="1.0" encoding="UTF-8" standalone="no"?>
<!DOCTYPE svg PUBLIC "-//W3C//DTD SVG 1.1//EN" "http://www.w3.org/Graphics/SVG/1.1/DTD/svg11.dtd">
<svg version="1.1" xmlns="http://www.w3.org/2000/svg" xmlns:xlink="http://www.w3.org/1999/xlink" preserveAspectRatio="xMidYMid meet" viewBox="0 0 640 640" width="640" height="640"><defs><path d="M636.21 180.69L632.23 181.26L628.2 181.67L624.12 181.92L620 182L615.88 181.92L611.8 181.67L607.77 181.26L603.79 180.69L599.86 179.97L595.98 179.09L592.16 178.07L588.41 176.9L584.71 175.59L581.09 174.14L577.54 172.55L574.06 170.83L570.66 168.98L570 168.59L569.34 168.98L565.94 170.83L562.46 172.55L558.91 174.14L555.29 175.59L551.59 176.9L547.84 178.07L544.02 179.09L540.14 179.97L536.21 180.69L532.23 181.26L528.2 181.67L524.12 181.92L520 182L515.88 181.92L511.8 181.67L507.77 181.26L503.79 180.69L499.86 179.97L495.98 179.09L492.16 178.07L488.41 176.9L484.71 175.59L481.09 174.14L477.54 172.55L474.06 170.83L470.66 168.98L470 168.59L469.34 168.98L465.94 170.83L462.46 172.55L458.91 174.14L455.29 175.59L451.59 176.9L447.84 178.07L444.02 179.09L440.14 179.97L436.21 180.69L432.23 181.26L428.2 181.67L424.12 181.92L420 182L415.88 181.92L411.8 181.67L407.77 181.26L403.79 180.69L399.86 179.97L395.98 179.09L392.16 178.07L388.41 176.9L384.71 175.59L381.09 174.14L377.54 172.55L374.06 170.83L370.66 168.98L370 168.59L369.34 168.98L365.94 170.83L362.46 172.55L358.91 174.14L355.29 175.59L351.59 176.9L347.84 178.07L344.02 179.09L340.14 179.97L336.21 180.69L332.23 181.26L328.2 181.67L324.12 181.92L320 182L315.88 181.92L311.8 181.67L307.77 181.26L303.79 180.69L299.86 179.97L295.98 179.09L292.16 178.07L288.41 176.9L284.71 175.59L281.09 174.14L277.54 172.55L274.06 170.83L270.66 168.98L267.34 167.01L265 165.49L262.66 167.01L259.34 168.98L255.94 170.83L252.46 172.55L248.91 174.14L245.29 175.59L241.59 176.9L237.84 178.07L234.02 179.09L230.14 179.97L226.21 180.69L222.23 181.26L218.2 181.67L214.12 181.92L210 182L205.88 181.92L201.8 181.67L197.77 181.26L193.79 180.69L189.86 179.97L185.98 179.09L182.16 178.07L178.41 176.9L174.71 175.59L171.09 174.14L167.54 172.55L164.06 170.83L160.66 168.98L160 168.59L159.34 168.98L155.94 170.83L152.46 172.55L148.91 174.14L145.29 175.59L141.59 176.9L137.84 178.07L134.02 179.09L130.14 179.97L126.21 180.69L122.23 181.26L118.2 181.67L114.12 181.92L110 182L105.88 181.92L101.8 181.67L97.77 181.26L93.79 180.69L89.86 179.97L85.98 179.09L82.16 178.07L78.41 176.9L74.71 175.59L71.09 174.14L67.54 172.55L65 171.3L62.46 172.55L58.91 174.14L55.29 175.59L51.59 176.9L47.84 178.07L44.02 179.09L40.14 179.97L36.21 180.69L32.23 181.26L28.2 181.67L24.12 181.92L20 182L15.88 181.92L11.8 181.67L7.77 181.26L3.79 180.69L0 179.99L0 0L640 0L640 179.99L636.21 180.69Z" id="cJ4ACvpcB"></path><linearGradient id="gradientikbXXmF6i" gradientUnits="userSpaceOnUse" x1="320" y1="0" x2="320" y2="182"><stop style="stop-color: #703fb5;stop-opacity: 1" offset="0%"></stop><stop style="stop-color: #8d3838;stop-opacity: 1" offset="100%"></stop></linearGradient></defs><g><g><g><use xlink:href="#cJ4ACvpcB" opacity="1" fill="url(#gradientikbXXmF6i)"></use></g></g></g></svg>